<svg width="52" height="30" viewBox="0 0 52 30" fill="none" xmlns="http://www.w3.org/2000/svg">
<g clip-path="url(#clip0_336_1799)">
<path d="M35.4848 21.3392C35.3859 21.0757 26.6167 3.75411 26.4848 3.49067C26.0233 2.37102 25.1991 1.41602 24.1112 0.757406C21.3749 -0.823274 17.8804 0.0987893 16.298 2.83205C15.2101 4.70911 15.276 6.91547 16.331 8.66081C16.4299 8.89132 24.8035 25.4885 24.9683 25.7519C25.0672 26.0154 25.1991 26.2459 25.331 26.5093C25.7925 27.629 26.6167 28.584 27.7046 29.2426C30.4409 30.8233 33.9354 29.9341 35.5178 27.2009C36.6387 25.3238 36.5398 23.0845 35.4848 21.3392Z" fill="black" fill-opacity="0.4"/>
<path d="M25.3642 9.61581C26.3203 8.59495 26.9137 7.21185 26.9137 5.69704C26.9137 2.56861 24.3752 0 21.2104 0C19.2653 0 17.5511 0.954995 16.5291 2.43688C16.3313 2.63447 2.12249 20.1537 1.95765 20.3842C1.00161 21.4051 0.408203 22.7881 0.408203 24.303C0.408203 27.4643 2.97963 30 6.1115 30C8.05655 30 9.77084 29.045 10.7928 27.5631C10.9906 27.3326 25.2324 9.84632 25.3642 9.61581Z" fill="black"/>
<path d="M49.8584 9.61578C50.8144 8.59492 51.4078 7.21182 51.4078 5.69701C51.4078 2.53564 48.8364 -3.05176e-05 45.7045 -3.05176e-05C43.7595 -3.05176e-05 42.0452 0.954964 41.0232 2.43685C40.8254 2.63444 26.5837 20.1536 26.4188 20.3842C25.4628 21.405 24.8694 22.7881 24.8694 24.3029C24.8694 27.4643 27.4408 30 30.5727 30C32.5177 30 34.232 29.045 35.254 27.5631C35.4848 27.3326 49.6936 9.84629 49.8584 9.61578Z" fill="black"/>
</g>
<defs>
<clipPath id="clip0_336_1799">
<rect width="51" height="30" fill="white" transform="translate(0.408203)"/>
</clipPath>
</defs>
</svg>
